<mxfile host="www.draw.io" modified="2019-11-04T22:48:11.623Z" agent="Mozilla/5.0 (X11; Ubuntu; Linux x86_64; rv:70.0) Gecko/20100101 Firefox/70.0" etag="AEzaFq-5pExCMlbX-gfE" version="12.2.0" type="github" pages="1">
  <diagram name="Page-1" id="b5b7bab2-c9e2-2cf4-8b2a-24fd1a2a6d21">
    <mxGraphModel dx="2203" dy="1508" grid="1" gridSize="10" guides="1" tooltips="1" connect="1" arrows="1" fold="1" page="1" pageScale="1" pageWidth="827" pageHeight="1169" background="#ffffff" math="0" shadow="0">
      <root>
        <mxCell id="0"/>
        <mxCell id="1" parent="0"/>
        <mxCell id="FcQ-0TDlwSZqqjdX01S9-16" value="Backend Server #1" style="verticalAlign=top;align=left;spacingTop=8;spacingLeft=2;spacingRight=12;shape=cube;size=10;direction=south;fontStyle=4;html=1;" vertex="1" parent="1">
          <mxGeometry x="1000" y="60" width="280" height="440" as="geometry"/>
        </mxCell>
        <mxCell id="oKkt5P_t7uI-S61FeK80-1" value="User PC" style="verticalAlign=top;align=left;spacingTop=8;spacingLeft=2;spacingRight=12;shape=cube;size=10;direction=south;fontStyle=4;html=1;" parent="1" vertex="1">
          <mxGeometry x="-176" y="423" width="350" height="280" as="geometry"/>
        </mxCell>
        <mxCell id="oKkt5P_t7uI-S61FeK80-2" value="Frontend Server" style="verticalAlign=top;align=left;spacingTop=8;spacingLeft=2;spacingRight=12;shape=cube;size=10;direction=south;fontStyle=4;html=1;" parent="1" vertex="1">
          <mxGeometry x="413" y="82" width="350" height="950" as="geometry"/>
        </mxCell>
        <mxCell id="oKkt5P_t7uI-S61FeK80-3" value="Browser" style="verticalAlign=top;align=left;spacingTop=8;spacingLeft=2;spacingRight=12;shape=cube;size=10;direction=south;fontStyle=4;html=1;" parent="1" vertex="1">
          <mxGeometry x="-156" y="463" width="290" height="210" as="geometry"/>
        </mxCell>
        <mxCell id="oKkt5P_t7uI-S61FeK80-4" value="page.html" style="html=1;" parent="1" vertex="1">
          <mxGeometry x="-101" y="518" width="180" height="90" as="geometry"/>
        </mxCell>
        <mxCell id="oKkt5P_t7uI-S61FeK80-5" value="" style="shape=component;jettyWidth=8;jettyHeight=4;" parent="oKkt5P_t7uI-S61FeK80-4" vertex="1">
          <mxGeometry x="1" width="20" height="20" relative="1" as="geometry">
            <mxPoint x="-27" y="7" as="offset"/>
          </mxGeometry>
        </mxCell>
        <mxCell id="oKkt5P_t7uI-S61FeK80-6" value="«Module»&lt;br&gt;&lt;b&gt;LikeView&lt;/b&gt;" style="html=1;" parent="1" vertex="1">
          <mxGeometry x="498" y="150" width="180" height="90" as="geometry"/>
        </mxCell>
        <mxCell id="oKkt5P_t7uI-S61FeK80-7" value="" style="shape=component;jettyWidth=8;jettyHeight=4;" parent="oKkt5P_t7uI-S61FeK80-6" vertex="1">
          <mxGeometry x="1" width="20" height="20" relative="1" as="geometry">
            <mxPoint x="-27" y="7" as="offset"/>
          </mxGeometry>
        </mxCell>
        <mxCell id="oKkt5P_t7uI-S61FeK80-8" value="«Module»&lt;br&gt;&lt;div&gt;&lt;b&gt;CommentView&lt;/b&gt;&lt;br&gt;&lt;/div&gt;" style="html=1;" parent="1" vertex="1">
          <mxGeometry x="498" y="280" width="180" height="90" as="geometry"/>
        </mxCell>
        <mxCell id="oKkt5P_t7uI-S61FeK80-9" value="" style="shape=component;jettyWidth=8;jettyHeight=4;" parent="oKkt5P_t7uI-S61FeK80-8" vertex="1">
          <mxGeometry x="1" width="20" height="20" relative="1" as="geometry">
            <mxPoint x="-27" y="7" as="offset"/>
          </mxGeometry>
        </mxCell>
        <mxCell id="oKkt5P_t7uI-S61FeK80-10" value="&lt;div&gt;«Module»&lt;/div&gt;&lt;b&gt;AnonimousProductInfoView&lt;/b&gt;" style="html=1;" parent="1" vertex="1">
          <mxGeometry x="498" y="400" width="180" height="90" as="geometry"/>
        </mxCell>
        <mxCell id="oKkt5P_t7uI-S61FeK80-11" value="" style="shape=component;jettyWidth=8;jettyHeight=4;" parent="oKkt5P_t7uI-S61FeK80-10" vertex="1">
          <mxGeometry x="1" width="20" height="20" relative="1" as="geometry">
            <mxPoint x="-27" y="7" as="offset"/>
          </mxGeometry>
        </mxCell>
        <mxCell id="oKkt5P_t7uI-S61FeK80-12" value="«Module»&lt;br&gt;&lt;b&gt;RegisteredUserProductInfoView&lt;/b&gt;" style="html=1;" parent="1" vertex="1">
          <mxGeometry x="493" y="530" width="192" height="90" as="geometry"/>
        </mxCell>
        <mxCell id="oKkt5P_t7uI-S61FeK80-13" value="" style="shape=component;jettyWidth=8;jettyHeight=4;" parent="oKkt5P_t7uI-S61FeK80-12" vertex="1">
          <mxGeometry x="1" width="20" height="20" relative="1" as="geometry">
            <mxPoint x="-27" y="7" as="offset"/>
          </mxGeometry>
        </mxCell>
        <mxCell id="oKkt5P_t7uI-S61FeK80-14" value="«Module»&lt;br&gt;&lt;b&gt;OwnerProductInfoView&lt;/b&gt;" style="html=1;" parent="1" vertex="1">
          <mxGeometry x="498" y="650" width="180" height="90" as="geometry"/>
        </mxCell>
        <mxCell id="oKkt5P_t7uI-S61FeK80-15" value="" style="shape=component;jettyWidth=8;jettyHeight=4;" parent="oKkt5P_t7uI-S61FeK80-14" vertex="1">
          <mxGeometry x="1" width="20" height="20" relative="1" as="geometry">
            <mxPoint x="-27" y="7" as="offset"/>
          </mxGeometry>
        </mxCell>
        <mxCell id="oKkt5P_t7uI-S61FeK80-16" value="«Module»&lt;br&gt;&lt;b&gt;RecommendationsView&lt;/b&gt;" style="html=1;" parent="1" vertex="1">
          <mxGeometry x="498" y="780" width="180" height="90" as="geometry"/>
        </mxCell>
        <mxCell id="oKkt5P_t7uI-S61FeK80-17" value="" style="shape=component;jettyWidth=8;jettyHeight=4;" parent="oKkt5P_t7uI-S61FeK80-16" vertex="1">
          <mxGeometry x="1" width="20" height="20" relative="1" as="geometry">
            <mxPoint x="-27" y="7" as="offset"/>
          </mxGeometry>
        </mxCell>
        <mxCell id="oKkt5P_t7uI-S61FeK80-22" value="«Module»&lt;br&gt;&lt;b&gt;OwnedProductsView&lt;/b&gt;" style="html=1;" parent="1" vertex="1">
          <mxGeometry x="498" y="900" width="180" height="90" as="geometry"/>
        </mxCell>
        <mxCell id="oKkt5P_t7uI-S61FeK80-23" value="" style="shape=component;jettyWidth=8;jettyHeight=4;" parent="oKkt5P_t7uI-S61FeK80-22" vertex="1">
          <mxGeometry x="1" width="20" height="20" relative="1" as="geometry">
            <mxPoint x="-27" y="7" as="offset"/>
          </mxGeometry>
        </mxCell>
        <mxCell id="oKkt5P_t7uI-S61FeK80-39" value="DB Server" style="verticalAlign=top;align=left;spacingTop=8;spacingLeft=2;spacingRight=12;shape=cube;size=10;direction=south;fontStyle=4;html=1;" parent="1" vertex="1">
          <mxGeometry x="1364" y="470" width="290" height="210" as="geometry"/>
        </mxCell>
        <mxCell id="oKkt5P_t7uI-S61FeK80-40" value="&lt;div&gt;«executable»&lt;b&gt;&lt;br&gt;&lt;/b&gt;&lt;/div&gt;&lt;div&gt;&lt;b&gt;DB Server&lt;/b&gt;&lt;br&gt;&lt;/div&gt;" style="html=1;" parent="1" vertex="1">
          <mxGeometry x="1419" y="525" width="180" height="90" as="geometry"/>
        </mxCell>
        <mxCell id="oKkt5P_t7uI-S61FeK80-41" value="" style="shape=component;jettyWidth=8;jettyHeight=4;" parent="oKkt5P_t7uI-S61FeK80-40" vertex="1">
          <mxGeometry x="1" width="20" height="20" relative="1" as="geometry">
            <mxPoint x="-27" y="7" as="offset"/>
          </mxGeometry>
        </mxCell>
        <mxCell id="oKkt5P_t7uI-S61FeK80-49" value="«Module»&lt;br&gt;&lt;b&gt;RecommendationView&lt;br&gt;&lt;/b&gt;" style="html=1;" parent="1" vertex="1">
          <mxGeometry x="1049" y="120" width="180" height="90" as="geometry"/>
        </mxCell>
        <mxCell id="oKkt5P_t7uI-S61FeK80-50" value="" style="shape=component;jettyWidth=8;jettyHeight=4;" parent="oKkt5P_t7uI-S61FeK80-49" vertex="1">
          <mxGeometry x="1" width="20" height="20" relative="1" as="geometry">
            <mxPoint x="-27" y="7" as="offset"/>
          </mxGeometry>
        </mxCell>
        <mxCell id="oKkt5P_t7uI-S61FeK80-51" value="«Module»&lt;br&gt;&lt;b&gt;OwnedProductsView&lt;/b&gt;" style="html=1;" parent="1" vertex="1">
          <mxGeometry x="1049" y="250" width="180" height="90" as="geometry"/>
        </mxCell>
        <mxCell id="oKkt5P_t7uI-S61FeK80-52" value="" style="shape=component;jettyWidth=8;jettyHeight=4;" parent="oKkt5P_t7uI-S61FeK80-51" vertex="1">
          <mxGeometry x="1" width="20" height="20" relative="1" as="geometry">
            <mxPoint x="-27" y="7" as="offset"/>
          </mxGeometry>
        </mxCell>
        <mxCell id="oKkt5P_t7uI-S61FeK80-53" value="«Module»&lt;br&gt;&lt;b&gt;ProductView&lt;/b&gt;" style="html=1;" parent="1" vertex="1">
          <mxGeometry x="1049" y="370" width="180" height="90" as="geometry"/>
        </mxCell>
        <mxCell id="oKkt5P_t7uI-S61FeK80-54" value="" style="shape=component;jettyWidth=8;jettyHeight=4;" parent="oKkt5P_t7uI-S61FeK80-53" vertex="1">
          <mxGeometry x="1" width="20" height="20" relative="1" as="geometry">
            <mxPoint x="-27" y="7" as="offset"/>
          </mxGeometry>
        </mxCell>
        <mxCell id="FcQ-0TDlwSZqqjdX01S9-1" value="https" style="endArrow=none;html=1;entryX=0;entryY=0;entryDx=135;entryDy=0;entryPerimeter=0;exitX=0;exitY=0;exitDx=480;exitDy=350;exitPerimeter=0;" edge="1" parent="1" source="oKkt5P_t7uI-S61FeK80-2" target="oKkt5P_t7uI-S61FeK80-1">
          <mxGeometry width="50" height="50" relative="1" as="geometry">
            <mxPoint x="225" y="810" as="sourcePoint"/>
            <mxPoint x="275" y="760" as="targetPoint"/>
          </mxGeometry>
        </mxCell>
        <mxCell id="FcQ-0TDlwSZqqjdX01S9-4" value="lan" style="endArrow=none;html=1;entryX=0;entryY=0;entryDx=470;entryDy=0;entryPerimeter=0;exitX=0;exitY=0;exitDx=225;exitDy=280;exitPerimeter=0;" edge="1" parent="1" source="FcQ-0TDlwSZqqjdX01S9-17" target="oKkt5P_t7uI-S61FeK80-2">
          <mxGeometry width="50" height="50" relative="1" as="geometry">
            <mxPoint x="980" y="712.6021798365123" as="sourcePoint"/>
            <mxPoint x="330" y="570" as="targetPoint"/>
          </mxGeometry>
        </mxCell>
        <mxCell id="FcQ-0TDlwSZqqjdX01S9-5" value="lan" style="endArrow=none;html=1;exitX=0;exitY=0;exitDx=225;exitDy=280;exitPerimeter=0;entryX=0;entryY=0;entryDx=470;entryDy=0;entryPerimeter=0;" edge="1" parent="1" source="FcQ-0TDlwSZqqjdX01S9-16" target="oKkt5P_t7uI-S61FeK80-2">
          <mxGeometry width="50" height="50" relative="1" as="geometry">
            <mxPoint x="990" y="285" as="sourcePoint"/>
            <mxPoint x="820" y="270" as="targetPoint"/>
          </mxGeometry>
        </mxCell>
        <mxCell id="FcQ-0TDlwSZqqjdX01S9-6" value="lan" style="endArrow=none;html=1;exitX=0;exitY=0;exitDx=215;exitDy=0;exitPerimeter=0;entryX=0;entryY=0;entryDx=0;entryDy=140;entryPerimeter=0;" edge="1" parent="1" source="FcQ-0TDlwSZqqjdX01S9-16" target="oKkt5P_t7uI-S61FeK80-39">
          <mxGeometry width="50" height="50" relative="1" as="geometry">
            <mxPoint x="1290" y="295" as="sourcePoint"/>
            <mxPoint x="773" y="559.9999999999998" as="targetPoint"/>
          </mxGeometry>
        </mxCell>
        <mxCell id="FcQ-0TDlwSZqqjdX01S9-7" value="lan" style="endArrow=none;html=1;entryX=0;entryY=0;entryDx=210;entryDy=150;entryPerimeter=0;exitX=0;exitY=0;exitDx=215;exitDy=0;exitPerimeter=0;" edge="1" parent="1" source="FcQ-0TDlwSZqqjdX01S9-17" target="oKkt5P_t7uI-S61FeK80-39">
          <mxGeometry width="50" height="50" relative="1" as="geometry">
            <mxPoint x="1370" y="780" as="sourcePoint"/>
            <mxPoint x="1524" y="480" as="targetPoint"/>
          </mxGeometry>
        </mxCell>
        <mxCell id="FcQ-0TDlwSZqqjdX01S9-17" value="Backend Server #N" style="verticalAlign=top;align=left;spacingTop=8;spacingLeft=2;spacingRight=12;shape=cube;size=10;direction=south;fontStyle=4;html=1;" vertex="1" parent="1">
          <mxGeometry x="1010" y="590" width="280" height="440" as="geometry"/>
        </mxCell>
        <mxCell id="FcQ-0TDlwSZqqjdX01S9-18" value="«Module»&lt;br&gt;&lt;b&gt;RecommendationView&lt;br&gt;&lt;/b&gt;" style="html=1;" vertex="1" parent="1">
          <mxGeometry x="1059" y="650" width="180" height="90" as="geometry"/>
        </mxCell>
        <mxCell id="FcQ-0TDlwSZqqjdX01S9-19" value="" style="shape=component;jettyWidth=8;jettyHeight=4;" vertex="1" parent="FcQ-0TDlwSZqqjdX01S9-18">
          <mxGeometry x="1" width="20" height="20" relative="1" as="geometry">
            <mxPoint x="-27" y="7" as="offset"/>
          </mxGeometry>
        </mxCell>
        <mxCell id="FcQ-0TDlwSZqqjdX01S9-20" value="«Module»&lt;br&gt;&lt;b&gt;OwnedProductsView&lt;/b&gt;" style="html=1;" vertex="1" parent="1">
          <mxGeometry x="1059" y="780" width="180" height="90" as="geometry"/>
        </mxCell>
        <mxCell id="FcQ-0TDlwSZqqjdX01S9-21" value="" style="shape=component;jettyWidth=8;jettyHeight=4;" vertex="1" parent="FcQ-0TDlwSZqqjdX01S9-20">
          <mxGeometry x="1" width="20" height="20" relative="1" as="geometry">
            <mxPoint x="-27" y="7" as="offset"/>
          </mxGeometry>
        </mxCell>
        <mxCell id="FcQ-0TDlwSZqqjdX01S9-22" value="«Module»&lt;br&gt;&lt;b&gt;ProductView&lt;/b&gt;" style="html=1;" vertex="1" parent="1">
          <mxGeometry x="1059" y="900" width="180" height="90" as="geometry"/>
        </mxCell>
        <mxCell id="FcQ-0TDlwSZqqjdX01S9-23" value="" style="shape=component;jettyWidth=8;jettyHeight=4;" vertex="1" parent="FcQ-0TDlwSZqqjdX01S9-22">
          <mxGeometry x="1" width="20" height="20" relative="1" as="geometry">
            <mxPoint x="-27" y="7" as="offset"/>
          </mxGeometry>
        </mxCell>
      </root>
    </mxGraphModel>
  </diagram>
</mxfile>
